<svg width="42" height="49" viewBox="0 0 42 49" fill="none" xmlns="http://www.w3.org/2000/svg">
<path d="M11.1999 45.7337H29.4686C29.7357 46.4139 30.0872 47.0563 30.5152 47.6458V49H32.1249V47.3673C32.1249 47.1818 32.0626 47.0018 31.9483 46.8567C30.2015 44.6577 29.9662 41.5961 31.356 39.1487L32.0182 37.9723C32.197 37.6531 32.1441 37.2522 31.8887 36.9922L25.0476 30.0505C24.2725 29.2382 24.2822 27.9447 25.0702 27.1448C25.8589 26.3448 27.1338 26.3351 27.9341 27.1217L36.3847 35.6967L37.5224 34.5422L34.5391 31.5119V23.4077L38.3805 27.8633C39.5361 29.2033 40.1728 30.9226 40.173 32.7027V49H41.7826V32.7027C41.7826 30.5269 41.0047 28.4248 39.5926 26.7871L34.5391 20.9263V0.81667C34.5391 0.365698 34.1787 0 33.7343 0H11.1999C10.7547 0 10.3949 0.365698 10.3949 0.81667V44.9171C10.3949 45.368 10.7547 45.7337 11.1999 45.7337ZM12.0043 44.1004V4.90022H26.491V6.53316H17.6382C17.1934 6.53316 16.8332 6.89885 16.8332 7.35003C16.8332 8.70336 15.7522 9.80004 14.4187 9.80004C13.9739 9.80004 13.6141 10.1657 13.6141 10.6167V38.3835C13.6141 38.8345 13.9739 39.2004 14.4187 39.2004C15.7522 39.2004 16.8332 40.2973 16.8332 41.6504C16.8332 42.1011 17.1934 42.4668 17.6382 42.4668H27.296C27.7404 42.4668 28.1008 42.1011 28.1008 41.6504C28.1034 40.7322 28.6135 39.8936 29.4203 39.4789C28.8553 40.9489 28.7078 42.5501 28.9949 44.1004H12.0043ZM27.296 11.4336H29.7104V20.288C27.8535 18.2322 25.2142 17.0886 22.4669 17.1499C19.7197 17.0886 17.08 18.2322 15.2236 20.288V11.3518C16.8029 11.0222 18.0372 9.7695 18.3624 8.1667H26.491V10.6167C26.491 11.0679 26.8511 11.4336 27.296 11.4336ZM28.1008 9.80004V6.05471L31.7915 9.80004H28.1008ZM24.3618 31.6607L30.2092 37.5951C28.4204 37.7314 26.9372 39.0526 26.5714 40.8335H18.3624C18.0372 39.2307 16.8029 37.9784 15.2236 37.6486V28.713C17.08 30.7686 19.7197 31.9116 22.4669 31.8501C23.1024 31.844 23.7367 31.7808 24.3618 31.6607ZM23.9101 25.9645C22.8222 27.0749 22.5416 28.7604 23.2097 30.1715C22.9626 30.192 22.716 30.2168 22.4669 30.2168C18.4721 30.2168 15.2236 27.6528 15.2236 24.5001C15.2236 21.348 18.4721 18.7832 22.4669 18.7832C26.4613 18.7832 29.7104 21.348 29.7104 24.5001C29.704 25.1001 29.5807 25.6929 29.348 26.245L29.0721 25.9645C27.6455 24.5196 25.3363 24.5196 23.9101 25.9645ZM31.3202 28.2454V11.4336H32.9295V29.8786L31.3202 28.2454ZM32.9295 1.63334V8.64514L27.8646 3.5057C27.7964 3.43784 27.7172 3.38209 27.6297 3.34294C27.6038 3.33146 27.5788 3.3249 27.5493 3.31506C27.4832 3.29271 27.415 3.27898 27.3457 3.27406C27.3305 3.27652 27.3144 3.26689 27.296 3.26689H12.0043V1.63334H32.9295Z" fill="#3B3B3B"/>
<path d="M22.4669 10.6167C21.1332 10.6167 20.0526 11.7138 20.0526 13.0669C20.0526 14.4203 21.1332 15.5169 22.4669 15.5169C23.8002 15.5169 24.8813 14.4203 24.8813 13.0669C24.8813 11.7138 23.8002 10.6167 22.4669 10.6167ZM22.4669 13.8836C22.0221 13.8836 21.6623 13.5179 21.6623 13.0669C21.6623 12.6157 22.0221 12.2501 22.4669 12.2501C22.9113 12.2501 23.2715 12.6157 23.2715 13.0669C23.2715 13.5179 22.9113 13.8836 22.4669 13.8836Z" fill="#3B3B3B"/>
<path d="M20.0526 35.9337C20.0526 37.287 21.1332 38.3835 22.4669 38.3835C23.8002 38.3835 24.8813 37.287 24.8813 35.9337C24.8813 34.5806 23.8002 33.4837 22.4669 33.4837C21.1332 33.4837 20.0526 34.5806 20.0526 35.9337ZM23.2715 35.9337C23.2715 36.3847 22.9113 36.7504 22.4669 36.7504C22.0221 36.7504 21.6623 36.3847 21.6623 35.9337C21.6623 35.4827 22.0221 35.117 22.4669 35.117C22.9113 35.117 23.2715 35.4827 23.2715 35.9337Z" fill="#3B3B3B"/>
<path d="M0.670476 16.7875C1.98194 17.0093 3.00977 18.0527 3.22794 19.3833C3.2936 19.7766 3.62894 20.0642 4.02185 20.0642C4.41456 20.0642 4.7499 19.7766 4.81555 19.3833C5.03372 18.0527 6.06156 17.0093 7.37302 16.7875C7.76027 16.7207 8.04349 16.3806 8.04349 15.9819C8.04349 15.5834 7.76027 15.2433 7.37302 15.1769C6.06156 14.9545 5.03372 13.9115 4.81555 12.5806C4.7499 12.1874 4.41456 11.9 4.02185 11.9C3.62894 11.9 3.2936 12.1874 3.22794 12.5806C3.00977 13.9115 1.98194 14.9545 0.670476 15.1769C0.283018 15.2433 0 15.5834 0 15.9819C0 16.3806 0.283018 16.7207 0.670476 16.7875ZM4.02185 14.8159C4.33557 15.269 4.72465 15.6638 5.17109 15.9819C4.72465 16.3003 4.33557 16.6949 4.02185 17.1483C3.70792 16.6949 3.31885 16.3003 2.8724 15.9819C3.31885 15.6638 3.70792 15.269 4.02185 14.8159Z" fill="#3B3B3B"/>
</svg>
