<svg width="48" height="36" viewBox="0 0 48 36" fill="none" xmlns="http://www.w3.org/2000/svg">
<path d="M12 26.7239C9.35278 26.7239 7.2 28.8041 7.2 31.362C7.2 33.9199 9.35278 36 12 36C14.6472 36 16.8 33.9199 16.8 31.362C16.8 28.8041 14.6472 26.7239 12 26.7239ZM12 34.454C10.2352 34.454 8.80003 33.0672 8.80003 31.362C8.80003 29.6567 10.2353 28.27 12 28.27C13.7647 28.27 15.2 29.6568 15.2 31.362C15.2 33.0673 13.7648 34.454 12 34.454Z" fill="#3B3B3B"/>
<path d="M12.8001 30.589H11.2V32.135H12.8001V30.589Z" fill="#3B3B3B"/>
<path d="M39.2 26.7239C36.5527 26.7239 34.4 28.8041 34.4 31.362C34.4 33.9199 36.5527 36 39.2 36C41.8472 36 44 33.9199 44 31.362C44 28.8041 41.8472 26.7239 39.2 26.7239ZM39.2 34.454C37.4352 34.454 36 33.0673 36 31.362C36 29.6567 37.4352 28.27 39.2 28.27C40.9647 28.27 42.3999 29.6568 42.3999 31.362C42.4 33.0673 40.9648 34.454 39.2 34.454Z" fill="#3B3B3B"/>
<path d="M40 30.589H38.4V32.135H40V30.589Z" fill="#3B3B3B"/>
<path d="M47.9432 24.8904L43.1432 13.2953C43.0208 13.0023 42.7272 12.8098 42.4 12.8098H32C31.5576 12.8098 31.2 13.1561 31.2 13.5828V31.362C31.2 31.7894 31.5576 32.1349 32 32.1349H35.1999V30.5889H32.7999V14.3558H41.8583L46.4 25.3263V30.5889H43.2V32.1349H47.2C47.6424 32.1349 48 31.7894 48 31.362V25.1779C48 25.0798 47.9808 24.9823 47.9432 24.8904Z" fill="#3B3B3B"/>
<path d="M32 0H0.799969C0.358406 0 0 0.346312 0 0.772975V31.362C0 31.7894 0.358406 32.1349 0.799969 32.1349H7.99997V30.5889H1.60003V1.54604H31.2V30.589H16V32.135L32 32.1349C32.4424 32.1349 32.8 31.7895 32.8 31.3621V0.773066C32.8 0.346312 32.4424 0 32 0Z" fill="#3B3B3B"/>
<path d="M37.6 22.0859V17.4479H43.2V15.9018H36.8C36.3576 15.9018 36 16.2481 36 16.6748V22.8589C36 23.2864 36.3576 23.6318 36.8 23.6318H46.4V22.0859H37.6Z" fill="#3B3B3B"/>
<path d="M47.2 27.4969H44.8V29.0429H47.2V27.4969Z" fill="#3B3B3B"/>
<path d="M6.40003 27.4969H0V29.0429H6.40003V27.4969Z" fill="#3B3B3B"/>
<path d="M32 27.4969H17.6V29.0429H32V27.4969Z" fill="#3B3B3B"/>
<path d="M4.8 8.83438C4.35844 8.83438 4.00003 9.18069 4.00003 9.60735V16.5644H5.60006V10.3803H8.80003V8.83438H4.8Z" fill="#3B3B3B"/>
<path d="M8.80003 11.9264H4.8V13.4724H8.80003V11.9264Z" fill="#3B3B3B"/>
<path d="M16 11.1534C16 9.87486 14.9232 8.83438 13.6 8.83438H11.2C10.7585 8.83438 10.4001 9.18069 10.4001 9.60735V16.5644H12V10.3803H13.6C14.0408 10.3803 14.4 10.7274 14.4 11.1533C14.4 11.5792 14.0408 11.9263 13.6 11.9263C13.1585 11.9263 12.8001 12.2726 12.8001 12.6993C12.8001 13.1259 13.1585 13.4722 13.6 13.4722C14.0408 13.4722 14.4 13.8193 14.4 14.2452V16.5642H16V14.2452C16 13.6515 15.768 13.1097 15.3872 12.6992C15.768 12.2889 16 11.7471 16 11.1534Z" fill="#3B3B3B"/>
<path d="M22.4001 11.9264H18.4V13.4724H22.4001V11.9264Z" fill="#3B3B3B"/>
<path d="M22.4 10.3804V8.83438H18.3999C17.9584 8.83438 17.6 9.18069 17.6 9.60735V15.7914C17.6 16.2189 17.9584 16.5644 18.3999 16.5644H22.4V15.0184H19.2V10.3803L22.4 10.3804Z" fill="#3B3B3B"/>
<path d="M28.8 11.9264H24.8V13.4724H28.8V11.9264Z" fill="#3B3B3B"/>
<path d="M28.8 10.3804V8.83438H24.8C24.3576 8.83438 24 9.18069 24 9.60735V15.7914C24 16.2189 24.3576 16.5644 24.8 16.5644H28.8V15.0184H25.6V10.3803L28.8 10.3804Z" fill="#3B3B3B"/>
<path d="M28.8 18.1104H4.00003V19.6565H28.8V18.1104Z" fill="#3B3B3B"/>
</svg>
