<svg width="42" height="42" viewBox="0 0 42 42" fill="none" xmlns="http://www.w3.org/2000/svg">
<path d="M21.0048 8.40051C21.0041 8.40051 21.0034 8.40051 21.0021 8.40051C17.264 8.40051 13.7487 9.8558 11.1047 12.499C8.46087 15.1428 7.00342 18.6582 7.00276 22.3975C7.00137 30.1171 13.2804 36.3987 21 36.4001C21.0028 36.4001 21.0056 36.4001 21.0091 36.4001C22.1011 36.4001 23.1917 36.2714 24.2508 36.0172L23.9239 34.6558C22.972 34.8846 21.9912 35.0001 21.0084 35.0001C21.0057 35.0001 21.0029 35.0001 21.0001 35.0001C14.0526 34.9987 8.40148 29.3456 8.40287 22.3982C8.40361 19.0327 9.71463 15.8687 12.0947 13.4894C14.4747 11.1101 17.6373 9.80044 21.0022 9.80044C21.0029 9.80044 21.0043 9.80044 21.005 9.80044C24.4714 9.80117 27.8195 11.2515 30.1918 13.7791L31.2131 12.8215C28.5767 10.0126 24.8569 8.40125 21.0048 8.40051Z" fill="#3B3B3B"/>
<path d="M21.7 4.20057H20.2999V9.10047H21.7V4.20057Z" fill="#3B3B3B"/>
<path d="M21 0.000639019C18.6837 0.000639019 16.8 1.88429 16.8 4.20057C16.8 6.51686 18.6837 8.40051 21 8.40051C23.3163 8.40051 25.2 6.51686 25.2 4.20057C25.2 1.88429 23.3162 0.000639019 21 0.000639019ZM21 7.00059C19.4558 7.00059 18.2 5.74479 18.2 4.20066C18.2 2.65652 19.4558 1.40073 21 1.40073C22.5442 1.40073 23.8 2.65652 23.8 4.20066C23.8 5.74479 22.5442 7.00059 21 7.00059Z" fill="#3B3B3B"/>
<path d="M23.1 3.50061H18.9V4.90062H23.1V3.50061Z" fill="#3B3B3B"/>
<path d="M21 23.8003C21.7732 23.8003 22.4 23.1735 22.4 22.4003C22.4 21.6271 21.7732 21.0003 21 21.0003C20.2268 21.0003 19.6 21.6271 19.6 22.4003C19.6 23.1735 20.2268 23.8003 21 23.8003Z" fill="#3B3B3B"/>
<path d="M25.2724 12.2887L20.3728 22.0877L21.6249 22.7137L26.5245 12.9147L25.2724 12.2887Z" fill="#3B3B3B"/>
<path d="M21.7 11.2005H20.2999V12.6005H21.7V11.2005Z" fill="#3B3B3B"/>
<path d="M21.7 32.2002H20.2999V33.6002H21.7V32.2002Z" fill="#3B3B3B"/>
<path d="M16.0075 12.3523L14.7936 13.0499L15.4948 14.2698L16.7086 13.5722L16.0075 12.3523Z" fill="#3B3B3B"/>
<path d="M11.6467 16.1941L10.9491 17.4079L12.1689 18.109L12.8666 16.8952L11.6467 16.1941Z" fill="#3B3B3B"/>
<path d="M11.2 21.7004H9.79995V23.1004H11.2V21.7004Z" fill="#3B3B3B"/>
<path d="M12.1415 26.7083L10.9516 27.3945L11.6511 28.6073L12.8409 27.9211L12.1415 26.7083Z" fill="#3B3B3B"/>
<path d="M15.4949 30.5285L14.7942 31.7486L16.0083 32.4458L16.709 31.2257L15.4949 30.5285Z" fill="#3B3B3B"/>
<path d="M1.39995 40.6001V8.79327L13.0102 1.69817C13.9922 4.07392 13.279 6.88722 11.2161 8.47828L8.14866 10.7056C7.42768 11.232 6.99858 12.0804 7.00063 12.9715V13.3005C7.00063 14.8447 8.25645 16.1004 9.8006 16.1004V14.7004C9.02852 14.7004 8.40057 14.0726 8.40057 13.3004V12.9686C8.39918 12.522 8.61336 12.0985 8.9725 11.836L12.0546 9.59815C14.8755 7.42255 15.6729 3.44803 13.9082 0.353368C13.8144 0.188898 13.6583 0.0691341 13.4749 0.0222949C13.2908 -0.0252825 13.0969 0.00408428 12.9352 0.102766L0.335262 7.80276C0.126656 7.93089 0 8.15696 0 8.40051V41.3C0 41.6871 0.313605 42 0.699973 42H32.2V40.6H1.39995V40.6001Z" fill="#3B3B3B"/>
<path d="M32.8999 33.6001H26.5999C24.2836 33.6001 22.3999 35.4838 22.3999 37.8001C22.3999 40.1163 24.2836 42 26.5999 42H32.8999C35.2163 42 37.0999 40.1163 37.0999 37.8001C37.0999 35.4839 35.2163 33.6001 32.8999 33.6001ZM32.8999 40.6001H26.5999C25.0557 40.6001 23.8 39.3443 23.8 37.8001C23.8 36.2559 25.0558 35.0002 26.5999 35.0002H32.8999C34.4442 35.0002 35.6999 36.256 35.6999 37.8001C35.7 39.3443 34.4442 40.6001 32.8999 40.6001Z" fill="#3B3B3B"/>
<path d="M35.7 26.6003H29.4C27.0837 26.6003 25.2 28.4839 25.2 30.8002C25.2 33.1165 27.0837 35.0001 29.4 35.0001H35.7C38.0163 35.0001 39.9 33.1165 39.9 30.8002C39.9 28.4839 38.0162 26.6003 35.7 26.6003ZM35.7 33.6001H29.4C27.8558 33.6001 26.6 32.3443 26.6 30.8002C26.6 29.256 27.8558 28.0003 29.4 28.0003H35.7C37.2442 28.0003 38.5 29.2561 38.5 30.8002C38.5 32.3444 37.2442 33.6001 35.7 33.6001Z" fill="#3B3B3B"/>
<path d="M37.8 19.6004H31.5C29.1837 19.6004 27.3 21.484 27.3 23.8003C27.3 26.1166 29.1837 28.0003 31.5 28.0003H37.8C40.1163 28.0003 42 26.1166 42 23.8003C42 21.484 40.1162 19.6004 37.8 19.6004ZM37.8 26.6003H31.5C29.9558 26.6003 28.7 25.3445 28.7 23.8003C28.7 22.2562 29.9558 21.0004 31.5 21.0004H37.8C39.3442 21.0004 40.6 22.2562 40.6 23.8003C40.6 25.3445 39.3442 26.6003 37.8 26.6003Z" fill="#3B3B3B"/>
<path d="M37.8 12.6004H31.5C29.1837 12.6004 27.3 14.4841 27.3 16.8004C27.3 19.1167 29.1837 21.0003 31.5 21.0003H37.8C40.1163 21.0003 42 19.1167 42 16.8004C42 14.4842 40.1162 12.6004 37.8 12.6004ZM37.8 19.6004H31.5C29.9558 19.6004 28.7 18.3446 28.7 16.8005C28.7 15.2563 29.9558 14.0005 31.5 14.0005H37.8C39.3442 14.0005 40.6 15.2563 40.6 16.8005C40.6 18.3446 39.3442 19.6004 37.8 19.6004Z" fill="#3B3B3B"/>
<path d="M11.6944 8.60616L10.7045 9.59611L12.8046 11.6962L13.7946 10.7063L11.6944 8.60616Z" fill="#3B3B3B"/>
<path d="M9.59443 10.7059L8.60447 11.6959L10.7046 13.796L11.6946 12.8061L9.59443 10.7059Z" fill="#3B3B3B"/>
<path d="M33.3948 10.7056L31.2948 8.60567C31.0211 8.33193 30.5787 8.33193 30.3051 8.60567L28.2051 10.7056L29.1948 11.6954L30.7999 10.0903L31.9102 11.2005L30.3051 12.8056L31.2948 13.7954L33.3948 11.6954C33.6686 11.4217 33.6686 10.9793 33.3948 10.7056Z" fill="#3B3B3B"/>
</svg>
