<svg width="13" height="16" viewBox="0 0 13 16" fill="none" xmlns="http://www.w3.org/2000/svg">
<path fill-rule="evenodd" clip-rule="evenodd" d="M0.599098 1.06932C0.982696 0.685726 1.50297 0.470215 2.04545 0.470215H7.5C7.68083 0.470215 7.85425 0.542059 7.98212 0.669925L12.073 4.76083C12.2009 4.8887 12.2727 5.06211 12.2727 5.24294V13.4248C12.2727 13.9672 12.0572 14.4875 11.6736 14.8711C11.29 15.2547 10.7698 15.4702 10.2273 15.4702H2.04545C1.50297 15.4702 0.982695 15.2547 0.599098 14.8711C0.215501 14.4875 0 13.9672 0 13.4248V2.51567C0 1.97318 0.215501 1.45292 0.599098 1.06932ZM2.04545 1.83385C1.86463 1.83385 1.6912 1.9057 1.56334 2.03356C1.43547 2.16143 1.36364 2.33484 1.36364 2.51567V13.4248C1.36364 13.6056 1.43547 13.779 1.56334 13.9069C1.6912 14.0347 1.86463 14.1066 2.04545 14.1066H10.2273C10.4081 14.1066 10.5815 14.0347 10.7094 13.9069C10.8373 13.779 10.9091 13.6056 10.9091 13.4248V5.52536L7.21758 1.83385H2.04545Z" fill="#B1B1B1"/>
<path fill-rule="evenodd" clip-rule="evenodd" d="M7.5 0.470215C7.87656 0.470215 8.18182 0.775475 8.18182 1.15203V4.56112H11.5909C11.9675 4.56112 12.2727 4.86638 12.2727 5.24294C12.2727 5.6195 11.9675 5.92476 11.5909 5.92476H7.5C7.12344 5.92476 6.81818 5.6195 6.81818 5.24294V1.15203C6.81818 0.775475 7.12344 0.470215 7.5 0.470215Z" fill="#B1B1B1"/>
<path fill-rule="evenodd" clip-rule="evenodd" d="M2.72727 8.65203C2.72727 8.27548 3.03253 7.97021 3.40909 7.97021H8.86364C9.2402 7.97021 9.54546 8.27548 9.54546 8.65203C9.54546 9.02859 9.2402 9.33385 8.86364 9.33385H3.40909C3.03253 9.33385 2.72727 9.02859 2.72727 8.65203Z" fill="#B1B1B1"/>
<path fill-rule="evenodd" clip-rule="evenodd" d="M2.72727 11.3793C2.72727 11.0027 3.03253 10.6975 3.40909 10.6975H8.86364C9.2402 10.6975 9.54546 11.0027 9.54546 11.3793C9.54546 11.7559 9.2402 12.0611 8.86364 12.0611H3.40909C3.03253 12.0611 2.72727 11.7559 2.72727 11.3793Z" fill="#B1B1B1"/>
<path fill-rule="evenodd" clip-rule="evenodd" d="M2.72727 5.92476C2.72727 5.5482 3.03253 5.24294 3.40909 5.24294H4.77273C5.14929 5.24294 5.45455 5.5482 5.45455 5.92476C5.45455 6.30132 5.14929 6.60658 4.77273 6.60658H3.40909C3.03253 6.60658 2.72727 6.30132 2.72727 5.92476Z" fill="#B1B1B1"/>
</svg>
