<svg width="15" height="13" viewBox="0 0 15 13" fill="none" xmlns="http://www.w3.org/2000/svg">
<path fill-rule="evenodd" clip-rule="evenodd" d="M0.166016 0.60587C0.166016 0.271257 0.437273 0 0.771885 0H9.85993C10.1945 0 10.4658 0.271257 10.4658 0.60587V8.48217C10.4658 8.81679 10.1945 9.08805 9.85993 9.08805H0.771885C0.437273 9.08805 0.166016 8.81679 0.166016 8.48217V0.60587ZM1.37775 1.21174V7.87631H9.25406V1.21174H1.37775Z" fill="#B1B1B1"/>
<path fill-rule="evenodd" clip-rule="evenodd" d="M9.25406 3.63522C9.25406 3.30061 9.52532 3.02935 9.85993 3.02935H12.2834C12.4441 3.02935 12.5982 3.09315 12.7118 3.20678L14.5294 5.02438C14.6431 5.13801 14.7069 5.29214 14.7069 5.45283V8.48217C14.7069 8.81679 14.4356 9.08805 14.101 9.08805H9.85993C9.52532 9.08805 9.25406 8.81679 9.25406 8.48217V3.63522ZM10.4658 4.24109V7.87631H13.4951V5.70377L12.0324 4.24109H10.4658Z" fill="#B1B1B1"/>
<path fill-rule="evenodd" clip-rule="evenodd" d="M3.4983 9.08805C2.99638 9.08805 2.58949 9.49493 2.58949 9.99685C2.58949 10.4988 2.99638 10.9057 3.4983 10.9057C4.00022 10.9057 4.4071 10.4988 4.4071 9.99685C4.4071 9.49493 4.00022 9.08805 3.4983 9.08805ZM1.37775 9.99685C1.37775 8.82571 2.32715 7.87631 3.4983 7.87631C4.66944 7.87631 5.61884 8.82571 5.61884 9.99685C5.61884 11.168 4.66944 12.1174 3.4983 12.1174C2.32715 12.1174 1.37775 11.168 1.37775 9.99685Z" fill="#B1B1B1"/>
<path fill-rule="evenodd" clip-rule="evenodd" d="M11.3746 9.08805C10.8727 9.08805 10.4658 9.49493 10.4658 9.99685C10.4658 10.4988 10.8727 10.9057 11.3746 10.9057C11.8765 10.9057 12.2834 10.4988 12.2834 9.99685C12.2834 9.49493 11.8765 9.08805 11.3746 9.08805ZM9.25406 9.99685C9.25406 8.82571 10.2035 7.87631 11.3746 7.87631C12.5457 7.87631 13.4951 8.82571 13.4951 9.99685C13.4951 11.168 12.5457 12.1174 11.3746 12.1174C10.2035 12.1174 9.25406 11.168 9.25406 9.99685Z" fill="#B1B1B1"/>
</svg>
