<svg width="13" height="15" viewBox="0 0 13 15" fill="none" xmlns="http://www.w3.org/2000/svg">
<path fill-rule="evenodd" clip-rule="evenodd" d="M5.89701 0.0434123C6.05136 -0.0144708 6.22145 -0.0144708 6.37581 0.0434123L11.8304 2.08888C12.0965 2.18868 12.2728 2.44309 12.2728 2.7273V7.50006C12.2728 9.84992 10.7171 11.7276 9.31269 12.9564C8.59617 13.5833 7.88287 14.0734 7.35005 14.4064C7.08293 14.5734 6.85936 14.702 6.701 14.7896C6.62178 14.8335 6.55875 14.8672 6.51461 14.8903C6.49253 14.9019 6.47516 14.9109 6.46284 14.9172L6.44818 14.9247L6.44377 14.9269L6.4423 14.9277C6.4423 14.9277 6.44133 14.9281 6.13641 14.3183C5.83149 14.9281 5.83107 14.9279 5.83107 14.9279L5.82906 14.9269L5.82464 14.9247L5.80998 14.9172C5.79766 14.9109 5.7803 14.9019 5.75822 14.8903C5.71407 14.8672 5.65104 14.8335 5.57181 14.7896C5.41346 14.702 5.18988 14.5734 4.92276 14.4064C4.38995 14.0734 3.67665 13.5833 2.96013 12.9564C1.55574 11.7276 0 9.84992 0 7.50006V2.7273C0 2.44309 0.176303 2.18868 0.442421 2.08888L5.89701 0.0434123ZM6.13641 14.3183L5.83107 14.9279C6.02302 15.0239 6.24938 15.0241 6.44133 14.9281L6.13641 14.3183ZM6.13641 13.5429C6.26707 13.4688 6.43416 13.3708 6.62732 13.25C7.11724 12.9438 7.76758 12.4964 8.41471 11.9302C9.73762 10.7726 10.9092 9.24114 10.9092 7.50006V3.1998L6.13641 1.41001L1.36365 3.1998V7.50006C1.36365 9.24114 2.53519 10.7726 3.8581 11.9302C4.50523 12.4964 5.15558 12.9438 5.64549 13.25C5.83865 13.3708 6.00574 13.4688 6.13641 13.5429Z" fill="#B1B1B1"/>
</svg>
