<svg width="15" height="15" viewBox="0 0 15 15" fill="none" xmlns="http://www.w3.org/2000/svg">
<path fill-rule="evenodd" clip-rule="evenodd" d="M7.51946 1.33699C4.19666 1.33699 1.50301 4.03065 1.50301 7.35344C1.50301 10.6762 4.19666 13.3699 7.51946 13.3699C10.8423 13.3699 13.5359 10.6762 13.5359 7.35344C13.5359 4.03065 10.8423 1.33699 7.51946 1.33699ZM0.166016 7.35344C0.166016 3.29225 3.45826 0 7.51946 0C11.5807 0 14.8729 3.29225 14.8729 7.35344C14.8729 11.4146 11.5807 14.7069 7.51946 14.7069C3.45826 14.7069 0.166016 11.4146 0.166016 7.35344Z" fill="#B1B1B1"/>
<path fill-rule="evenodd" clip-rule="evenodd" d="M7.51946 2.67398C7.88866 2.67398 8.18795 2.97327 8.18795 3.34247V6.94029L10.4924 8.09251C10.8226 8.25763 10.9565 8.65917 10.7914 8.9894C10.6263 9.31962 10.2247 9.45346 9.89448 9.28835L7.2205 7.95136C6.99402 7.83812 6.85096 7.60665 6.85096 7.35344V3.34247C6.85096 2.97327 7.15026 2.67398 7.51946 2.67398Z" fill="#B1B1B1"/>
</svg>
