<svg width="13" height="13" viewBox="0 0 13 13" fill="none" xmlns="http://www.w3.org/2000/svg">
<path fill-rule="evenodd" clip-rule="evenodd" d="M5.44769 0.350922C5.54392 0.13753 5.75864 0 5.99558 0C6.63163 0 7.24163 0.249022 7.69138 0.692287C8.14114 1.13555 8.39381 1.73675 8.39381 2.36362V4.13634H11.1847C11.4441 4.13397 11.7011 4.18695 11.9378 4.29168C12.1757 4.3969 12.3875 4.55183 12.5586 4.74575C12.7297 4.93966 12.856 5.16795 12.9287 5.41474C13.0014 5.66152 13.0188 5.92094 12.9796 6.17501L12.1523 11.4931C12.0871 11.9156 11.8692 12.3012 11.5388 12.578C11.2092 12.8541 10.7897 13.0039 10.3572 12.9999H1.79867C1.32163 12.9999 0.864143 12.8132 0.526827 12.4807C0.18951 12.1483 0 11.6974 0 11.2272V7.09087C0 6.62071 0.18951 6.16981 0.526827 5.83736C0.864143 5.50491 1.32163 5.31815 1.79867 5.31815H3.20771L5.44769 0.350922ZM4.1969 6.03446L6.36 1.23771C6.5407 1.29453 6.70687 1.39334 6.84348 1.52797C7.06836 1.74961 7.19469 2.05019 7.19469 2.36362V4.72724C7.19469 5.05359 7.46312 5.31815 7.79425 5.31815H11.1877L11.1945 5.31811C11.2814 5.31714 11.3675 5.33479 11.4468 5.36987C11.5261 5.40494 11.5967 5.4566 11.6538 5.52124C11.7108 5.58588 11.7529 5.66197 11.7771 5.74423C11.8013 5.82642 11.8071 5.9128 11.7941 5.99742L10.9667 11.3159C10.945 11.4568 10.8724 11.5852 10.7622 11.6775C10.652 11.7698 10.5117 11.8198 10.3671 11.8181L4.1969 11.8181V6.03446ZM2.99779 11.8181V6.49996H1.79867C1.63966 6.49996 1.48717 6.56223 1.37473 6.67304C1.26229 6.78386 1.19912 6.93415 1.19912 7.09087V11.2272C1.19912 11.3839 1.26229 11.5342 1.37473 11.645C1.48717 11.7558 1.63966 11.8181 1.79867 11.8181H2.99779Z" fill="#B1B1B1"/>
</svg>
