<svg width="14" height="14" viewBox="0 0 14 14" fill="none" xmlns="http://www.w3.org/2000/svg">
<path fill-rule="evenodd" clip-rule="evenodd" d="M7 1.27273C3.83691 1.27273 1.27273 3.83691 1.27273 7C1.27273 10.1631 3.83691 12.7273 7 12.7273C10.1631 12.7273 12.7273 10.1631 12.7273 7C12.7273 3.83691 10.1631 1.27273 7 1.27273ZM0 7C0 3.13401 3.13401 0 7 0C10.866 0 14 3.13401 14 7C14 10.866 10.866 14 7 14C3.13401 14 0 10.866 0 7Z" fill="#B1B1B1"/>
<path fill-rule="evenodd" clip-rule="evenodd" d="M7 2.54545C7.35145 2.54545 7.63636 2.83036 7.63636 3.18182V6.6067L9.83005 7.70355C10.1444 7.86072 10.2718 8.24297 10.1146 8.55732C9.95746 8.87167 9.57521 8.99908 9.26087 8.84191L6.71541 7.56918C6.49982 7.46138 6.36364 7.24104 6.36364 7V3.18182C6.36364 2.83036 6.64855 2.54545 7 2.54545Z" fill="#B1B1B1"/>
</svg>
