<svg width="13" height="15" viewBox="0 0 13 15" fill="none" xmlns="http://www.w3.org/2000/svg">
<path fill-rule="evenodd" clip-rule="evenodd" d="M0.599098 0.599109C0.982696 0.215511 1.50297 0 2.04545 0H7.5C7.68083 0 7.85425 0.0718441 7.98212 0.19971L12.073 4.29062C12.2009 4.41848 12.2727 4.5919 12.2727 4.77273V12.9545C12.2727 13.497 12.0572 14.0173 11.6736 14.4009C11.29 14.7845 10.7698 15 10.2273 15H2.04545C1.50297 15 0.982695 14.7845 0.599098 14.4009C0.215501 14.0173 0 13.497 0 12.9545V2.04545C0 1.50297 0.215501 0.982706 0.599098 0.599109ZM2.04545 1.36364C1.86463 1.36364 1.6912 1.43548 1.56334 1.56335C1.43547 1.69121 1.36364 1.86462 1.36364 2.04545V12.9545C1.36364 13.1354 1.43547 13.3088 1.56334 13.4367C1.6912 13.5645 1.86463 13.6364 2.04545 13.6364H10.2273C10.4081 13.6364 10.5815 13.5645 10.7094 13.4367C10.8373 13.3088 10.9091 13.1354 10.9091 12.9545V5.05515L7.21758 1.36364H2.04545Z" fill="#3498DB"/>
<path fill-rule="evenodd" clip-rule="evenodd" d="M7.5 0C7.87656 0 8.18182 0.30526 8.18182 0.681818V4.09091H11.5909C11.9675 4.09091 12.2727 4.39617 12.2727 4.77273C12.2727 5.14928 11.9675 5.45455 11.5909 5.45455H7.5C7.12344 5.45455 6.81818 5.14928 6.81818 4.77273V0.681818C6.81818 0.30526 7.12344 0 7.5 0Z" fill="#3498DB"/>
<path fill-rule="evenodd" clip-rule="evenodd" d="M2.72727 8.18182C2.72727 7.80526 3.03253 7.5 3.40909 7.5H8.86364C9.2402 7.5 9.54546 7.80526 9.54546 8.18182C9.54546 8.55838 9.2402 8.86364 8.86364 8.86364H3.40909C3.03253 8.86364 2.72727 8.55838 2.72727 8.18182Z" fill="#3498DB"/>
<path fill-rule="evenodd" clip-rule="evenodd" d="M2.72727 10.9091C2.72727 10.5325 3.03253 10.2273 3.40909 10.2273H8.86364C9.2402 10.2273 9.54546 10.5325 9.54546 10.9091C9.54546 11.2856 9.2402 11.5909 8.86364 11.5909H3.40909C3.03253 11.5909 2.72727 11.2856 2.72727 10.9091Z" fill="#3498DB"/>
<path fill-rule="evenodd" clip-rule="evenodd" d="M2.72727 5.45455C2.72727 5.07799 3.03253 4.77273 3.40909 4.77273H4.77273C5.14929 4.77273 5.45455 5.07799 5.45455 5.45455C5.45455 5.8311 5.14929 6.13636 4.77273 6.13636H3.40909C3.03253 6.13636 2.72727 5.8311 2.72727 5.45455Z" fill="#3498DB"/>
</svg>
