<svg width="13" height="11" viewBox="0 0 13 11" fill="none" xmlns="http://www.w3.org/2000/svg">
<path fill-rule="evenodd" clip-rule="evenodd" d="M1.77276 1.22222C1.44911 1.22222 1.18186 1.49862 1.18186 1.83333V9.16667C1.18186 9.50138 1.44911 9.77778 1.77276 9.77778H11.2272C11.5509 9.77778 11.8181 9.50138 11.8181 9.16667V1.83333C11.8181 1.49862 11.5509 1.22222 11.2272 1.22222H1.77276ZM4.83456e-05 1.83333C4.83456e-05 0.823604 0.796419 0 1.77276 0H11.2272C12.2036 0 12.9999 0.823604 12.9999 1.83333V9.16667C12.9999 10.1764 12.2036 11 11.2272 11H1.77276C0.796419 11 4.83456e-05 10.1764 4.83456e-05 9.16667V1.83333Z" fill="#B1B1B1"/>
<path fill-rule="evenodd" clip-rule="evenodd" d="M0.106867 1.48287C0.294015 1.20637 0.662465 1.13915 0.92982 1.3327L6.5 5.36516L12.0702 1.3327C12.3375 1.13915 12.706 1.20637 12.8931 1.48287C13.0803 1.75937 13.0153 2.14042 12.7479 2.33396L6.83886 6.61174C6.6354 6.75903 6.3646 6.75903 6.16114 6.61174L0.252095 2.33396C-0.0152591 2.14042 -0.0802813 1.75937 0.106867 1.48287Z" fill="#B1B1B1"/>
</svg>
