<svg width="22" height="23" viewBox="0 0 22 23" fill="none" xmlns="http://www.w3.org/2000/svg">
<g opacity="0.5">
<path fill-rule="evenodd" clip-rule="evenodd" d="M4 1.72461C4 1.17232 4.44772 0.724609 5 0.724609H17C17.5523 0.724609 18 1.17232 18 1.72461V8.72461C18 9.27689 17.5523 9.72461 17 9.72461C16.4477 9.72461 16 9.27689 16 8.72461V2.72461H6V8.72461C6 9.27689 5.55228 9.72461 5 9.72461C4.44772 9.72461 4 9.27689 4 8.72461V1.72461Z" fill="black"/>
<path fill-rule="evenodd" clip-rule="evenodd" d="M3 9.72461C2.73478 9.72461 2.48044 9.82998 2.29291 10.0175C2.10537 10.2051 2 10.4594 2 10.7246V15.7246C2 15.9898 2.10537 16.2442 2.29291 16.4317C2.48044 16.6192 2.73478 16.7246 3 16.7246H5C5.55228 16.7246 6 17.1723 6 17.7246C6 18.2769 5.55228 18.7246 5 18.7246H3C2.20435 18.7246 1.4413 18.4086 0.878693 17.8459C0.316084 17.2833 0 16.5203 0 15.7246V10.7246C0 9.92896 0.316084 9.16588 0.878693 8.60327C1.4413 8.04066 2.20435 7.72461 3 7.72461H19C19.7957 7.72461 20.5587 8.04066 21.1213 8.60327C21.6839 9.16588 22 9.92896 22 10.7246V15.7246C22 16.5203 21.6839 17.2833 21.1213 17.8459C20.5587 18.4086 19.7957 18.7246 19 18.7246H17C16.4477 18.7246 16 18.2769 16 17.7246C16 17.1723 16.4477 16.7246 17 16.7246H19C19.2652 16.7246 19.5196 16.6192 19.7071 16.4317C19.8947 16.2442 20 15.9898 20 15.7246V10.7246C20 10.4594 19.8947 10.2051 19.7071 10.0175C19.5196 9.82998 19.2652 9.72461 19 9.72461H3Z" fill="black"/>
<path fill-rule="evenodd" clip-rule="evenodd" d="M4 13.7246C4 13.1723 4.44772 12.7246 5 12.7246H17C17.5523 12.7246 18 13.1723 18 13.7246V21.7246C18 22.2769 17.5523 22.7246 17 22.7246H5C4.44772 22.7246 4 22.2769 4 21.7246V13.7246ZM6 14.7246V20.7246H16V14.7246H6Z" fill="black"/>
</g>
</svg>
