<svg width="15" height="15" viewBox="0 0 15 15" fill="none" xmlns="http://www.w3.org/2000/svg">
<path d="M11 6.87495C10.85 6.87495 10.7 6.72495 10.7 6.57495C10.625 5.44995 10.1 4.84995 8.97495 4.77495C8.82495 4.77495 8.67495 4.62495 8.67495 4.39995C8.67495 4.24995 8.82495 4.09995 9.04995 4.09995C10.475 4.17495 11.3 4.99995 11.375 6.49995C11.375 6.72495 11.225 6.87495 11 6.87495ZM12.725 7.47495C12.875 7.47495 13.025 7.32495 13.025 7.17495C13.025 5.82495 12.65 4.77495 11.825 3.87495C11 2.97495 9.87495 2.44995 8.44995 2.37495C8.29995 2.37495 8.07495 2.52495 8.07495 2.67495C8.07495 2.82495 8.22495 3.04995 8.37495 3.04995C9.64995 3.12495 10.625 3.57495 11.3 4.32495C11.975 5.07495 12.3499 6.04995 12.275 7.17495C12.4249 7.24995 12.575 7.47495 12.725 7.47495ZM14.525 8.14995C14.6749 8.14995 14.825 7.99995 14.825 7.77495C14.825 5.52495 14.15 3.79995 12.8 2.52495C11.45 1.24995 9.79995 0.574951 7.84995 0.574951C7.69995 0.574951 7.54995 0.724949 7.54995 0.874949C7.54995 1.02495 7.69995 1.24995 7.84995 1.24995C9.64995 1.24995 11.15 1.84995 12.35 3.04995C13.55 4.24995 14.15 5.82495 14.15 7.84995C14.2249 7.99995 14.375 8.14995 14.525 8.14995ZM9.04995 11.075C5.59995 10.175 4.62495 6.72495 4.62495 6.72495C4.62495 6.72495 4.54995 6.27495 4.92495 5.97495L5.52495 5.44995C5.82495 5.22495 6.04995 4.62495 5.74995 4.09995C5.59995 3.79995 5.22495 3.19995 4.92495 2.89995C4.62495 2.52495 4.02495 1.77495 4.02495 1.77495C3.72495 1.39995 3.27495 1.32495 2.74995 1.54995C2.29995 1.77495 1.84995 2.14995 1.47495 2.59995C1.17495 2.97495 1.02495 3.27495 0.949951 3.64995C0.949951 3.72495 0.949951 3.72495 0.949951 3.79995C0.949951 3.94995 0.949953 4.09995 1.02495 4.24995C1.17495 4.77495 1.54995 5.67495 2.37495 7.17495C2.89995 8.14995 3.42495 8.89995 3.94995 9.57495C4.24995 9.94995 4.54995 10.325 4.92495 10.7C4.92495 10.7 4.92495 10.7 4.92495 10.775C4.92495 10.775 4.92495 10.775 4.99995 10.775C5.37495 11.15 5.74995 11.45 6.12495 11.75C6.79995 12.275 7.62495 12.8 8.52495 13.325C10.025 14.15 10.85 14.5249 11.45 14.6749C11.6 14.7499 11.75 14.75 11.9 14.75C11.9749 14.75 11.975 14.75 12.05 14.75C12.425 14.675 12.725 14.5249 13.1 14.2249C13.55 13.8499 13.8499 13.4 14.15 12.95C14.375 12.5 14.3 12.0499 13.925 11.6749C13.925 11.6749 13.175 11 12.8 10.775C12.425 10.5499 11.9 10.175 11.6 9.94995C11 9.64995 10.475 9.79995 10.25 10.1749L9.72495 10.775C9.57495 11.075 9.04995 11.075 9.04995 11.075Z" fill="white"/>
</svg>
