<svg width="17" height="17" viewBox="0 0 17 17" fill="none" xmlns="http://www.w3.org/2000/svg">
<path d="M12.1999 9.82499C11.9749 9.67499 10.9999 9.225 10.8499 9.15C10.6249 9.075 10.5499 9 10.3999 9.3C10.2499 9.525 9.8749 9.975 9.7249 10.125C9.5749 10.275 9.4249 10.275 9.2749 10.2C9.0499 10.05 8.4499 9.9 7.6249 9.225C7.0249 8.7 6.6499 8.025 6.4999 7.875C6.3499 7.65 6.4999 7.575 6.5749 7.425C6.6499 7.35 6.7999 7.125 6.8749 7.125C6.9499 6.975 7.0249 6.89999 7.0999 6.82499C7.1749 6.67499 7.1749 6.525 7.0999 6.525C7.0249 6.375 6.6499 5.39999 6.4999 4.94999C6.4249 4.49999 6.1999 4.65 6.0499 4.65C5.8999 4.65 5.7499 4.65 5.5999 4.65C5.4499 4.65 5.2999 4.72499 5.0749 4.94999C4.8499 5.17499 4.3249 5.625 4.3249 6.6C4.3249 7.575 5.0749 8.54999 5.1499 8.69999C5.2999 8.84999 6.6499 10.875 8.5999 11.775C9.0499 12 9.4249 12.075 9.7249 12.225C10.1749 12.375 10.6999 12.375 10.9999 12.3C11.4499 12.225 12.1999 11.85 12.3499 11.325C12.5749 10.875 12.5749 10.5 12.4999 10.35C12.5749 9.9 12.4249 9.82499 12.1999 9.82499ZM8.5249 14.85C7.3249 14.85 6.1249 14.55 5.0749 13.875L4.7749 13.725L2.2249 14.4L2.8999 11.925L2.7499 11.625C2.0749 10.575 1.6999 9.3 1.6999 8.025C1.6999 4.275 4.7749 1.35 8.5249 1.35C10.3249 1.35 12.0499 2.1 13.3249 3.375C14.5999 4.65 15.3499 6.375 15.3499 8.175C15.3499 11.775 12.1999 14.85 8.5249 14.85ZM14.2999 2.32499C12.7249 0.749993 10.6999 0 8.5249 0C4.0249 0 0.349903 3.6 0.349903 8.175C0.349903 9.675 0.799902 11.025 1.3999 12.225L0.274902 16.425L4.5499 15.3C5.7499 15.975 7.0999 16.275 8.5249 16.275C13.0249 16.275 16.6999 12.6 16.6999 8.1C16.6249 5.925 15.8749 3.97499 14.2999 2.32499Z" fill="white"/>
</svg>
