<svg width="18" height="20" viewBox="0 0 18 20" fill="none" xmlns="http://www.w3.org/2000/svg">
<path fill-rule="evenodd" clip-rule="evenodd" d="M2.7 3.63636C2.20294 3.63636 1.8 4.04338 1.8 4.54545V17.2727C1.8 17.7748 2.20294 18.1818 2.7 18.1818H15.3C15.7971 18.1818 16.2 17.7748 16.2 17.2727V4.54545C16.2 4.04338 15.7971 3.63636 15.3 3.63636H2.7ZM0 4.54545C0 3.03922 1.20883 1.81818 2.7 1.81818H15.3C16.7912 1.81818 18 3.03922 18 4.54545V17.2727C18 18.779 16.7912 20 15.3 20H2.7C1.20883 20 0 18.779 0 17.2727V4.54545Z" fill="#B1B1B1"/>
<path fill-rule="evenodd" clip-rule="evenodd" d="M12.6 0C13.0971 0 13.5 0.407014 13.5 0.909091V4.54545C13.5 5.04753 13.0971 5.45455 12.6 5.45455C12.1029 5.45455 11.7 5.04753 11.7 4.54545V0.909091C11.7 0.407014 12.1029 0 12.6 0Z" fill="#B1B1B1"/>
<path fill-rule="evenodd" clip-rule="evenodd" d="M5.4 0C5.89706 0 6.3 0.407014 6.3 0.909091V4.54545C6.3 5.04753 5.89706 5.45455 5.4 5.45455C4.90294 5.45455 4.5 5.04753 4.5 4.54545V0.909091C4.5 0.407014 4.90294 0 5.4 0Z" fill="#B1B1B1"/>
<path fill-rule="evenodd" clip-rule="evenodd" d="M0 8.18182C0 7.67974 0.402944 7.27273 0.9 7.27273H17.1C17.5971 7.27273 18 7.67974 18 8.18182C18 8.6839 17.5971 9.09091 17.1 9.09091H0.9C0.402944 9.09091 0 8.6839 0 8.18182Z" fill="#B1B1B1"/>
</svg>
