<svg width="12" height="14" viewBox="0 0 12 14" fill="none" xmlns="http://www.w3.org/2000/svg">
<path fill-rule="evenodd" clip-rule="evenodd" d="M5.95 1.16668C4.68757 1.16668 3.47685 1.65834 2.58418 2.53352C1.6915 3.4087 1.19 4.5957 1.19 5.83338C1.19 7.6406 2.38936 9.39423 3.70444 10.7552C4.34981 11.423 4.99721 11.9698 5.48392 12.3498C5.66506 12.4912 5.82328 12.609 5.95 12.7008C6.07672 12.609 6.23494 12.4912 6.41608 12.3498C6.90279 11.9698 7.55019 11.423 8.19556 10.7552C9.51064 9.39423 10.71 7.6406 10.71 5.83338C10.71 4.5957 10.2085 3.4087 9.31583 2.53352C8.42316 1.65834 7.21243 1.16668 5.95 1.16668ZM5.95 13.4168C5.61995 13.9021 5.61963 13.9019 5.61963 13.9019L5.61794 13.9008L5.61397 13.8982L5.60033 13.8892C5.58875 13.8815 5.57222 13.8704 5.55109 13.856C5.50883 13.8273 5.4481 13.7855 5.37154 13.7313C5.21848 13.6229 5.00179 13.4647 4.74264 13.2624C4.22529 12.8585 3.53394 12.2751 2.84056 11.5575C1.47814 10.1476 0 8.10953 0 5.83338C3.54648e-08 4.28627 0.626878 2.80254 1.74272 1.70857C2.85856 0.6146 4.37196 0 5.95 0C7.52804 0 9.04145 0.6146 10.1573 1.70857C11.2731 2.80254 11.9 4.28627 11.9 5.83338C11.9 8.10953 10.4219 10.1476 9.05944 11.5575C8.36606 12.2751 7.67471 12.8585 7.15736 13.2624C6.89821 13.4647 6.68153 13.6229 6.52847 13.7313C6.45191 13.7855 6.39117 13.8273 6.34891 13.856C6.32778 13.8704 6.31126 13.8815 6.29968 13.8892L6.28604 13.8982L6.28207 13.9008L6.28081 13.9016C6.28081 13.9016 6.28005 13.9021 5.95 13.4168ZM5.95 13.4168L6.28081 13.9016C6.08095 14.0323 5.81949 14.0326 5.61963 13.9019L5.95 13.4168Z" fill="#B1B1B1"/>
<path fill-rule="evenodd" clip-rule="evenodd" d="M5.95 4.66671C5.29278 4.66671 4.76 5.18904 4.76 5.83338C4.76 6.47772 5.29278 7.00006 5.95 7.00006C6.60722 7.00006 7.14 6.47772 7.14 5.83338C7.14 5.18904 6.60722 4.66671 5.95 4.66671ZM3.57 5.83338C3.57 4.54471 4.63556 3.50003 5.95 3.50003C7.26444 3.50003 8.33 4.54471 8.33 5.83338C8.33 7.12206 7.26444 8.16674 5.95 8.16674C4.63556 8.16674 3.57 7.12206 3.57 5.83338Z" fill="#B1B1B1"/>
</svg>
