<svg width="22" height="22" viewBox="0 0 22 22" fill="none" xmlns="http://www.w3.org/2000/svg">
<path fill-rule="evenodd" clip-rule="evenodd" d="M11 2C6.02944 2 2 6.02944 2 11C2 15.9706 6.02944 20 11 20C15.9706 20 20 15.9706 20 11C20 6.02944 15.9706 2 11 2ZM0 11C0 4.92487 4.92487 0 11 0C17.0751 0 22 4.92487 22 11C22 17.0751 17.0751 22 11 22C4.92487 22 0 17.0751 0 11Z" fill="#3B3B3B"/>
<path fill-rule="evenodd" clip-rule="evenodd" d="M14.7071 7.29285C15.0976 7.68337 15.0976 8.31663 14.7071 8.70715L8.70711 14.7072C8.31658 15.0977 7.68342 15.0977 7.29289 14.7072C6.90237 14.3166 6.90237 13.6834 7.29289 13.2928L13.2929 7.29285C13.6834 6.90232 14.3166 6.90232 14.7071 7.29285Z" fill="#3B3B3B"/>
<path fill-rule="evenodd" clip-rule="evenodd" d="M7.29289 7.29285C7.68342 6.90232 8.31658 6.90232 8.70711 7.29285L14.7071 13.2928C15.0976 13.6834 15.0976 14.3166 14.7071 14.7072C14.3166 15.0977 13.6834 15.0977 13.2929 14.7072L7.29289 8.70715C6.90237 8.31663 6.90237 7.68337 7.29289 7.29285Z" fill="#3B3B3B"/>
</svg>
