<svg width="24" height="23" viewBox="0 0 24 23" fill="none" xmlns="http://www.w3.org/2000/svg">
<path fill-rule="evenodd" clip-rule="evenodd" d="M7 21C7 19.8954 7.89543 19 9 19C10.1046 19 11 19.8954 11 21C11 22.1046 10.1046 23 9 23C7.89543 23 7 22.1046 7 21Z" fill="white"/>
<path fill-rule="evenodd" clip-rule="evenodd" d="M18 21C18 19.8954 18.8954 19 20 19C21.1046 19 22 19.8954 22 21C22 22.1046 21.1046 23 20 23C18.8954 23 18 22.1046 18 21Z" fill="white"/>
<path fill-rule="evenodd" clip-rule="evenodd" d="M0 1C0 0.447715 0.447715 0 1 0H5C5.47663 0 5.88702 0.336414 5.98056 0.803772L6.82043 5H23C23.298 5 23.5805 5.13292 23.7705 5.36255C23.9605 5.59218 24.0381 5.89457 23.9823 6.18732L22.3809 14.5848C22.2437 15.2754 21.868 15.8958 21.3195 16.3373C20.7738 16.7766 20.0916 17.011 19.3914 17H9.68866C8.98839 17.011 8.30619 16.7766 7.76047 16.3373C7.21224 15.896 6.83665 15.2759 6.69934 14.5857L5.02881 6.2392C5.02203 6.21159 5.01639 6.18355 5.01196 6.15509L4.18033 2H1C0.447715 2 0 1.55228 0 1ZM7.22073 7L8.66086 14.1952C8.70658 14.4254 8.8318 14.6322 9.01462 14.7794C9.19744 14.9265 9.42621 15.0047 9.66086 15.0002L9.67999 15H19.4L19.4192 15.0002C19.6538 15.0047 19.8826 14.9265 20.0654 14.7794C20.2474 14.6329 20.3723 14.4273 20.4185 14.1984L21.7913 7H7.22073Z" fill="white"/>
</svg>
