<svg width="15" height="13" viewBox="0 0 15 13" fill="none" xmlns="http://www.w3.org/2000/svg">
<path fill-rule="evenodd" clip-rule="evenodd" d="M0 0.60587C0 0.271257 0.271257 0 0.60587 0H9.69391C10.0285 0 10.2998 0.271257 10.2998 0.60587V8.48217C10.2998 8.81679 10.0285 9.08805 9.69391 9.08805H0.60587C0.271257 9.08805 0 8.81679 0 8.48217V0.60587ZM1.21174 1.21174V7.87631H9.08804V1.21174H1.21174Z" fill="#B1B1B1"/>
<path fill-rule="evenodd" clip-rule="evenodd" d="M9.08804 3.63522C9.08804 3.30061 9.3593 3.02935 9.69391 3.02935H12.1174C12.2781 3.02935 12.4322 3.09315 12.5458 3.20678L14.3634 5.02438C14.477 5.13801 14.5409 5.29214 14.5409 5.45283V8.48217C14.5409 8.81679 14.2696 9.08805 13.935 9.08805H9.69391C9.3593 9.08805 9.08804 8.81679 9.08804 8.48217V3.63522ZM10.2998 4.24109V7.87631H13.3291V5.70377L11.8664 4.24109H10.2998Z" fill="#B1B1B1"/>
<path fill-rule="evenodd" clip-rule="evenodd" d="M3.33228 9.08805C2.83036 9.08805 2.42348 9.49493 2.42348 9.99685C2.42348 10.4988 2.83036 10.9057 3.33228 10.9057C3.8342 10.9057 4.24109 10.4988 4.24109 9.99685C4.24109 9.49493 3.8342 9.08805 3.33228 9.08805ZM1.21174 9.99685C1.21174 8.82571 2.16114 7.87631 3.33228 7.87631C4.50343 7.87631 5.45283 8.82571 5.45283 9.99685C5.45283 11.168 4.50343 12.1174 3.33228 12.1174C2.16114 12.1174 1.21174 11.168 1.21174 9.99685Z" fill="#B1B1B1"/>
<path fill-rule="evenodd" clip-rule="evenodd" d="M11.2086 9.08805C10.7067 9.08805 10.2998 9.49493 10.2998 9.99685C10.2998 10.4988 10.7067 10.9057 11.2086 10.9057C11.7105 10.9057 12.1174 10.4988 12.1174 9.99685C12.1174 9.49493 11.7105 9.08805 11.2086 9.08805ZM9.08804 9.99685C9.08804 8.82571 10.0374 7.87631 11.2086 7.87631C12.3797 7.87631 13.3291 8.82571 13.3291 9.99685C13.3291 11.168 12.3797 12.1174 11.2086 12.1174C10.0374 12.1174 9.08804 11.168 9.08804 9.99685Z" fill="#B1B1B1"/>
</svg>
